<svg fill="#002663" xmlns="http://www.w3.org/2000/svg" viewBox="0 0 210 60" width="420" height="120">

    <path d="M209.809 45.872a2.444 2.444 0 0 1-1.282 1.289 2.302 2.302 0 0 1-.934.191 2.33 2.33 0 0 1-.94-.191 2.457 2.457 0 0 1-.765-.518 2.447 2.447 0 0 1 0-3.433c.218-.22.473-.395.765-.522a2.33 2.33 0 0 1 .94-.19c.332 0 .645.063.934.19a2.441 2.441 0 0 1 1.282 1.294c.127.292.189.607.189.943 0 .336-.062.651-.189.947zm-.451-1.747a1.954 1.954 0 0 0-.387-.637 1.801 1.801 0 0 0-.6-.422 1.945 1.945 0 0 0-.778-.15c-.287 0-.546.049-.779.15a1.772 1.772 0 0 0-.6.422c-.167.18-.297.393-.389.637-.093.246-.14.512-.14.8 0 .288.047.555.14.8.092.244.222.457.389.637s.366.321.6.422c.233.101.492.15.779.15.284 0 .544-.049.778-.15.232-.101.432-.242.6-.422.165-.18.295-.393.387-.637.094-.245.141-.512.141-.8a2.22 2.22 0 0 0-.141-.8zm-1.052 2.219l-.75-1.217h-.486v1.217h-.413v-2.831h1.064c.346 0 .597.065.752.195.155.13.233.333.233.612 0 .269-.061.458-.179.569-.12.11-.3.186-.543.223l.799 1.232h-.477zm-.215-1.66l.147-.137a.512.512 0 0 0 .053-.256.398.398 0 0 0-.051-.213l-.134-.125a.611.611 0 0 0-.199-.058 1.572 1.572 0 0 0-.251-.008h-.586v.865h.514c.101 0 .195-.003.283-.011a.598.598 0 0 0 .224-.057zm-7.884 3.885c-.266.65-.533 1.248-.799 1.796a6.33 6.33 0 0 1-.915 1.41 3.466 3.466 0 0 1-1.282.908c-.51.211-1.154.318-1.929.318-.356 0-.705-.023-1.049-.067a98.881 98.881 0 0 0-1.049-.135v-2.081c.244.023.501.05.766.084.267.034.545.05.832.05.577 0 1.032-.105 1.365-.319.333-.213.604-.498.815-.856.21-.358.394-.761.55-1.208.153-.447.354-.895.597-1.342l-5.889-13.159h-1.665v-2.15h7.589v2.15h-2.928l4.358 10.271 4.292-10.271h-2.927v-2.15h7.154v2.15h-1.664l-6.222 14.601zm-16.572-3.976c.201.48.653.721 1.363.721.4 0 .716-.089.949-.269a1.69 1.69 0 0 0 .533-.688 2.77 2.77 0 0 0 .216-.94c.022-.346.033-.677.033-.99h2.33c0 1.589-.333 2.825-.998 3.709-.666.885-1.819 1.327-3.461 1.327-.976 0-1.731-.158-2.263-.471a2.929 2.929 0 0 1-1.182-1.259c-.254-.525-.411-1.135-.465-1.829a27.598 27.598 0 0 1-.084-2.216v-7.72h-2.962v-2.15h2.962v-3.356l2.729-.94v4.296h4.958v2.15h-4.958v8.928c0 .651.1 1.215.3 1.697zm-14.908.386h2.628V33.968h-2.628v-2.15h5.357v13.161h2.63v2.148h-7.987v-2.148zm5.357-16.652h-3.128v-3.154h3.128v3.154zm-6.356-4.934a32.824 32.824 0 0 1-.798 1.796 6.23 6.23 0 0 1-.917 1.41c-.343.392-.77.693-1.28.907-.51.212-1.154.318-1.931.318-.353 0-.704-.022-1.047-.067l-1.049-.134v-2.081c.244.023.5.05.766.084.266.033.542.05.832.05.576 0 1.031-.106 1.364-.319.333-.213.603-.498.814-.856a6.56 6.56 0 0 0 .55-1.208 8.78 8.78 0 0 1 .6-1.342l-5.891-13.16h-1.663V6.644h7.586v2.147h-2.928l4.36 10.272 4.292-10.272h-2.928V6.644h7.155v2.147h-1.664l-6.223 14.602zm-16.24-4.599h-.066c-.333 1.209-.96 2.093-1.88 2.652-.921.56-1.992.839-3.212.839a9.73 9.73 0 0 1-2.214-.251 5.583 5.583 0 0 1-1.912-.822 4.224 4.224 0 0 1-1.331-1.477c-.333-.605-.501-1.331-.501-2.182 0-1.164.256-2.076.765-2.736a4.646 4.646 0 0 1 1.966-1.476c.797-.326 1.679-.526 2.645-.605a34.945 34.945 0 0 1 2.813-.118h2.927v-.906c0-1.23-.312-2.082-.932-2.551-.621-.471-1.531-.705-2.728-.705-.511 0-.998.034-1.464.101a3.52 3.52 0 0 0-1.216.386c-.344.19-.632.458-.864.805-.234.347-.372.789-.417 1.327h-2.928c.045-.874.254-1.618.633-2.233a4.422 4.422 0 0 1 1.464-1.478 6.528 6.528 0 0 1 2.045-.805 11.072 11.072 0 0 1 2.381-.252c.887 0 1.74.062 2.562.185.821.124 1.541.358 2.163.705.62.348 1.115.828 1.48 1.444.366.615.549 1.415.549 2.399v8.763h2.664v2.148h-5.392v-3.157zm-2.296-4.027c-.488 0-1.07.017-1.748.05a8.988 8.988 0 0 0-1.929.302 3.896 3.896 0 0 0-1.565.823c-.431.38-.648.918-.648 1.611 0 .515.099.934.3 1.259.199.324.454.587.764.789a2.98 2.98 0 0 0 1.083.419 6.47 6.47 0 0 0 1.213.117c.844 0 1.57-.144 2.182-.437a4.234 4.234 0 0 0 1.496-1.157 4.79 4.79 0 0 0 .866-1.695 7.407 7.407 0 0 0 .282-2.081h-2.296zm-4.459 20.174h.068c.243-1.162.792-2.031 1.647-2.601.853-.571 1.857-.856 3.011-.856.244 0 .467.006.666.017a7.3 7.3 0 0 1 .566.051V33.8a9.026 9.026 0 0 0-.749-.117 7.276 7.276 0 0 0-.883-.051c-.953 0-1.718.229-2.296.688a4.39 4.39 0 0 0-1.314 1.745 8.018 8.018 0 0 0-.582 2.316 23.101 23.101 0 0 0-.134 2.435v4.163h3.129v2.148h-8.485v-2.148h2.627V33.968h-2.627v-2.15h5.356v3.123zm-12.079-15.526c.201.482.654.722 1.363.722.4 0 .717-.088.949-.268a1.69 1.69 0 0 0 .533-.688 2.8 2.8 0 0 0 .217-.94c.021-.347.032-.676.032-.99h2.33c0 1.589-.332 2.825-.997 3.708-.667.885-1.821 1.326-3.461 1.326-.977 0-1.731-.156-2.264-.469a2.923 2.923 0 0 1-1.182-1.259c-.254-.526-.41-1.136-.466-1.829a28.088 28.088 0 0 1-.082-2.216V8.791h-2.962V6.644h2.962V3.286l2.728-.939v4.297h4.959v2.147h-4.959v8.93c0 .649.1 1.213.3 1.694zm-3.261 12.069c1.352 0 2.489.23 3.411.687a6.166 6.166 0 0 1 2.246 1.864c.576.783.997 1.706 1.263 2.77.267 1.062.401 2.21.401 3.44h-12.48c0 1.768.472 3.055 1.415 3.861.942.805 2.312 1.208 4.109 1.208.421 0 .877-.062 1.364-.185.49-.123.945-.307 1.365-.554a3.693 3.693 0 0 0 1.064-.923c.29-.37.455-.799.5-1.293h2.529c-.023.941-.262 1.735-.715 2.384a5.411 5.411 0 0 1-1.714 1.577 7.625 7.625 0 0 1-2.296.873c-.844.179-1.664.27-2.462.27-1.242 0-2.358-.18-3.345-.538a6.988 6.988 0 0 1-2.546-1.578c-.711-.693-1.253-1.533-1.63-2.518-.378-.984-.566-2.102-.566-3.357 0-1.253.188-2.371.566-3.356a6.937 6.937 0 0 1 1.63-2.518 7.015 7.015 0 0 1 2.546-1.578c.987-.356 2.103-.536 3.345-.536zm-3.678 3.323c-.455.38-.815.85-1.082 1.409-.266.56-.399 1.187-.399 1.88h9.751c-.089-1.409-.54-2.506-1.349-3.289-.809-.783-1.958-1.175-3.443-1.175-.666 0-1.298.101-1.897.302a4.845 4.845 0 0 0-1.581.873zm-2.544-26.351c-.955 0-1.72.23-2.296.688a4.37 4.37 0 0 0-1.315 1.745 8.05 8.05 0 0 0-.583 2.317c-.088.839-.133 1.65-.133 2.433v4.164h3.128v2.148h-8.486v-2.148h2.629V8.791h-2.629V6.644h5.358v3.121h.067c.243-1.163.793-2.031 1.647-2.601.854-.571 1.858-.857 3.012-.857.244 0 .466.006.664.017.201.012.39.029.567.051v2.249a9.394 9.394 0 0 0-.749-.117 7.047 7.047 0 0 0-.881-.051zm-11.15 23.362h7.221v2.15h-1.863l-5.358 13.159h-3.328l-5.192-13.159h-1.863v-2.15h7.455v2.15h-2.762l4.126 10.607 4.326-10.607h-2.762v-2.15zm-12.262-12.89c.943.807 2.313 1.209 4.11 1.209.421 0 .877-.061 1.365-.184a5.231 5.231 0 0 0 1.364-.554 3.736 3.736 0 0 0 1.065-.922 2.42 2.42 0 0 0 .499-1.294h2.529c-.022.941-.26 1.735-.716 2.384a5.422 5.422 0 0 1-1.713 1.578 7.701 7.701 0 0 1-2.297.873c-.843.178-1.663.267-2.462.267-1.242 0-2.357-.179-3.344-.536a7.01 7.01 0 0 1-2.546-1.578 6.935 6.935 0 0 1-1.631-2.518c-.377-.984-.566-2.103-.566-3.356 0-1.254.189-2.373.566-3.358.378-.983.92-1.823 1.631-2.517a7.037 7.037 0 0 1 2.546-1.578c.987-.357 2.102-.537 3.344-.537 1.352 0 2.49.23 3.411.688.92.461 1.669 1.08 2.247 1.863.576.784.998 1.707 1.264 2.77s.399 2.21.399 3.441H98.345c0 1.767.471 3.055 1.414 3.859zm8.336-6.007c-.088-1.41-.538-2.507-1.347-3.291-.811-.783-1.958-1.174-3.444-1.174-.666 0-1.299.101-1.897.302a4.851 4.851 0 0 0-1.581.872 4.143 4.143 0 0 0-1.082 1.41c-.266.56-.399 1.187-.399 1.881h9.75zm-9.85 15.406h-3.129v-3.154h3.129v3.154zm0 16.652h2.628v2.148h-7.987v-2.148h2.63V33.968h-2.63v-2.15h5.359v13.161zm-7.737-24.891a6.295 6.295 0 0 1-2.346 1.627c-.931.381-1.996.57-3.195.57a6.163 6.163 0 0 1-3.145-.872 5.411 5.411 0 0 1-1.281-1.091 4.189 4.189 0 0 1-.831-1.494h-.067v3.123h-5.391v-2.148h2.662V2.145h-2.662V-.003h5.391v9.432h.067c.221-.492.521-.934.899-1.326a5.55 5.55 0 0 1 1.281-.99 6.395 6.395 0 0 1 3.077-.806c1.176 0 2.224.185 3.145.554.921.37 1.703.901 2.346 1.595.644.694 1.137 1.533 1.482 2.517.343.985.515 2.093.515 3.324 0 1.208-.167 2.299-.499 3.272-.333.974-.816 1.813-1.448 2.519zm-1.281-7.99a6.108 6.108 0 0 0-.865-1.863 4.306 4.306 0 0 0-1.431-1.292c-.577-.324-1.231-.487-1.964-.487-.932 0-1.73.163-2.395.487a4.738 4.738 0 0 0-1.647 1.292 5.374 5.374 0 0 0-.966 1.863 7.628 7.628 0 0 0-.316 2.199c0 .873.105 1.667.316 2.383a4.89 4.89 0 0 0 .982 1.845c.443.516.998.914 1.664 1.193.665.281 1.452.419 2.362.419.733 0 1.381-.138 1.948-.419a3.977 3.977 0 0 0 1.43-1.193c.388-.513.683-1.129.882-1.845.2-.716.3-1.51.3-2.383 0-.761-.1-1.494-.3-2.199zm-25.191 7.705h3.327L65.267 14.7h-9.751l-2.162 5.202h3.394v2.049h-8.652v-2.148h2.395L58.845-.003h3.494l8.253 19.806h2.395v2.148h-8.951v-2.148zM60.442 2.85l-4.027 9.701h7.987l-3.96-9.701zM20.699 47.573h-.126c-1.579-.853-9.111-4.492-13.883-9.932C2.527 32.822-.056 26.634.002 18.524V.502H41.27v18.022c.039 8.107-2.541 14.298-6.688 19.117-4.789 5.44-12.319 9.079-13.883 9.932zm-.353-.946c.106.054.289.152.289.152.099-.054.208-.111.329-.175 1.867-.979 6.122-3.215 9.916-6.401-.992-1.677-3.305-6.022-3.305-10.109 0-6.656 3.834-10.043 5.92-11.393H7.893c2.087 1.35 5.921 4.737 5.921 11.393 0 4.141-2.377 8.552-3.347 10.179 3.79 3.171 8.018 5.383 9.879 6.354zM7.234 37.156a28.45 28.45 0 0 0 2.634 2.609c.966-1.656 3.177-5.859 3.177-9.671 0-8.463-6.329-11.224-6.739-11.393H.733C.716 26.024 2.84 32.066 7.234 37.156zm6.267-35.921H.728v11.35c.142.055.292.091.453.091a1.3 1.3 0 0 0 1.294-1.307c0-.09-.009-.177-.025-.262.073.011.146.023.223.023.765 0 1.387-.628 1.387-1.401l-.015-.16.121.012c.817 0 1.479-.667 1.479-1.491l-.006-.056.02.001c.628 0 1.166-.374 1.417-.912.252.538.789.912 1.419.912l.019-.001-.007.056c0 .824.663 1.491 1.48 1.491l.121-.012-.016.16c0 .773.622 1.401 1.388 1.401.077 0 .15-.012.223-.023a1.301 1.301 0 0 0 1.269 1.569c.19 0 .368-.044.529-.119V1.235zm0 15.788a1.022 1.022 0 0 0-.978-.737c-.109 0-.211.021-.309.052.032-.104.055-.214.055-.33 0-.617-.497-1.117-1.107-1.117l-.199.021.023-.218c0-.662-.531-1.198-1.186-1.198l-.111.012.013-.129a1.27 1.27 0 0 0-1.264-1.275l-.022.001.004-.042a1.35 1.35 0 0 0-1.344-1.354c-.741 0-1.342.606-1.342 1.354l.004.042-.023-.001c-.7 0-1.264.571-1.264 1.275l.012.129-.111-.012c-.654 0-1.185.536-1.185 1.198l.023.218-.199-.021c-.611 0-1.107.5-1.107 1.117 0 .116.023.226.055.33a1.017 1.017 0 0 0-.31-.052 1.02 1.02 0 0 0-.901.546v1.136h12.773v-.945zM27.002 1.235H14.27v8.304l6.324-6.238 6.365 6.28v.2l.043.042V1.235zm0 9.673l-.043-.042v.486l-.019.019-6.346-6.261-6.324 6.238v.986l6.324-6.238 6.365 6.281v.199l.043.042v-1.71zm0 2.796l-.043-.042v.485l-.019.02-6.346-6.263-6.324 6.24v.986l6.324-6.238 6.365 6.28v.199l.043.042v-1.709zm0 2.795l-.043-.043v.487l-.019.018-6.346-6.262-6.324 6.24v1.029h12.732v-1.469zM40.544 1.235H27.77v16.733h12.774V1.235zm-.513 17.466h-4.948c-.41.169-6.74 2.93-6.74 11.393 0 3.762 2.151 7.9 3.136 9.6a28.26 28.26 0 0 0 2.553-2.533c4.382-5.092 6.506-11.133 6.506-18.46h-.507zm-6.937 11.53h-2.863v.161l-.077.079h-.192l-.078-.079v-.411l.005-.008-.005-.018v-4.374l.018-.102a.33.33 0 0 1 .22-.206l.039-.009-.014-.23h.132l.043-.003.113-.012.13-.033.037-.009-.025-.31h.134c.231 0 .451-.108.706-.233.346-.168.738-.358 1.288-.358h.011c.641 0 .959.223 1.11.392.15-.169.469-.392 1.11-.392h.011c.552 0 .943.19 1.288.358.255.125.475.233.706.233h.135l-.026.31.039.009.128.033.114.012.043.003h.131l-.013.23.038.009a.33.33 0 0 1 .22.206l.018.102v4.374l-.003.018.003.008v.411l-.078.079h-.192l-.078-.079v-.161h-2.862c-.064.437-.362.757-.732.757s-.667-.32-.732-.757zm-2.471-4.997l-.212.052.043 4.112c.618-.039 1.138-.584 2.132-.584h.002c.08 0 .155.003.226.009l.067.007.132.016.071.015.1.022.065.02.08.025.058.026.065.028.048.026.053.03.039.027.044.033.027.023.025.021.003-.647-.066-.021-.083-.024-.157-.04-.052-.012-.204-.033-.043-.007a2.142 2.142 0 0 0-.27-.016c-.481 0-.848.19-1.212.251-.488.084-.701.044-.701.044l-.28-3.403zm3.067-.503c-.032-.064-.23-.393-.979-.397-.489 0-.852.177-1.171.334-.229.11-.447.217-.684.248l.127 3.711.095-.021.093-.019.08-.03.111-.043.029-.013c.166-.078.339-.175.533-.261l.049-.022.145-.053.095-.035.153-.035.112-.026c.075-.012.156-.016.239-.018l.057-.005c.132 0 .245.011.347.031l.086.023.176.052.089.049.098.053.082.069.041.035-.003-3.627zm2.422-.063c-.319-.157-.681-.334-1.172-.334-.812.004-.977.394-.984.411l-.009.023.014 3.59.04-.035.081-.069.097-.053.09-.049.178-.052.085-.023c.1-.02.215-.031.347-.031h.001l.055.005c.083.002.165.006.24.018l.113.026.152.035.095.035.145.053.048.022c.194.086.368.183.534.261l.029.013.111.043.08.03.091.019.097.021.125-3.711c-.236-.031-.454-.138-.683-.248zm.917.566l-.28 3.403s-.214.04-.7-.044c-.365-.061-.732-.251-1.213-.251-.092 0-.183.005-.27.016l-.043.007-.203.033-.052.012-.157.04-.085.024-.065.021.002.647.028-.021.025-.023.045-.033.037-.027.055-.03.046-.026.067-.028.056-.026.082-.025.065-.02.1-.022.071-.015.132-.016.065-.007a2.75 2.75 0 0 1 .228-.009c.996 0 1.515.545 2.134.584l.043-4.112-.213-.052zm-2.713 4.82l-.012-.088h.133v-.003l1.447-.004 1.628-.004v-4.374l-.035-.05-.209 3.873-.069.01v-.003l-.107.003a4.65 4.65 0 0 1-.649-.052c-.43-.062-.862-.253-1.428-.253-.098 0-.195.007-.29.015l-.04.005-.039.003a4.278 4.278 0 0 0-.219.031l-.041.007-.168.035-.055.011-.015.003-.023.007-.154.04-.001.001c-.082.023-.133.041-.133.041l-.011-.008-.01.008s-.051-.018-.133-.041l-.002-.001-.153-.04-.023-.007-.015-.003-.055-.011-.168-.035-.042-.007a4.236 4.236 0 0 0-.218-.031l-.04-.003-.039-.005a3.433 3.433 0 0 0-.291-.015c-.566 0-.999.191-1.427.253a4.66 4.66 0 0 1-.649.052l-.107-.003v.003l-.07-.01-.21-3.873-.033.05v4.374l1.628.004 1.446.004v.003h.134l-.012.088c0 .379.214.675.489.675s.49-.296.49-.675zm-.745 0c0-.238.117-.439.255-.439.139 0 .255.201.255.439 0 .237-.116.438-.255.438-.138 0-.255-.201-.255-.438zm2.416-4.831l-.092-.045v-.29l.209.104c.143.076.275.141.403.183l-.009.267a2.648 2.648 0 0 1-.511-.219zm-.799-.01c.245.037.456.111.644.199v.287a2.295 2.295 0 0 0-.644-.227v-.259zm-.052-.559c.165.022.318.055.456.105v.279a2.003 2.003 0 0 0-.456-.124v-.26zm.456 1.211v.28a1.928 1.928 0 0 0-.533-.132v-.259c.197.018.374.053.533.111zm-.492.706l-.21-.02-.037.002v-.257l.037-.003c.075 0 .14.01.21.018v.26zm-.847-.995l-.002-.279c.163-.065.368-.112.639-.112l.04.004v.259l-.04-.004c-.296 0-.498.059-.637.132zm-.002-.551l-.002-.28c.163-.065.368-.112.641-.112l.04.003v.259l-.04-.003c-.298 0-.501.059-.639.133zm.602.717V26c-.272.005-.464.058-.597.127l-.002-.277c.153-.061.35-.104.599-.108zm-.246.833a1.14 1.14 0 0 0-.348.105l-.002-.279c.097-.037.217-.065.35-.084v.258zm.26.273v.257c-.275.004-.47.057-.606.126l-.001-.277c.157-.061.354-.104.607-.106zm.023.551c.125 0 .241.012.349.032v.265a1.737 1.737 0 0 0-.349-.037c-.287 0-.488.054-.626.123l-.001-.278c.16-.061.362-.105.627-.105zm.094-.545c.133.007.256.024.369.051v.268a1.736 1.736 0 0 0-.369-.059v-.26zm.829-.058a2.625 2.625 0 0 0-.435-.169v-.269c.158.04.302.091.435.152v.286zm.602 1.113l-.009.273a3.324 3.324 0 0 1-.419-.192 4.104 4.104 0 0 0-.415-.193v-.281c.197.07.37.159.532.244.109.056.211.108.311.149zm-.454-.486v-.289l.143.073c.116.06.224.116.329.157l-.009.269c-.147-.048-.29-.121-.437-.196l-.026-.014zm.136-.773l.007.003c.123.065.236.122.348.164l-.01.267a2.49 2.49 0 0 1-.345-.146v-.288zm-.444.347l.16.066v.286l-.16-.072v-.28zm.094-.788v-.28c.126.055.246.113.357.171.13.067.25.127.366.171l-.01.267a2.834 2.834 0 0 1-.473-.209c-.077-.039-.157-.081-.24-.12zm.214-.446v-.289l.143.072c.136.071.262.135.385.177l-.009.267a2.706 2.706 0 0 1-.493-.214l-.026-.013zm-3.198-.871l-.041.003v-.259l.041-.003c.272 0 .479.047.64.112v.28c-.141-.074-.344-.133-.64-.133zm.037 1.404v.257l-.037-.002c-.075 0-.142.011-.21.02v-.26c.069-.008.135-.018.21-.018l.037.003zm-.738-.151v-.28c.156-.058.335-.093.531-.111v.259c-.198.02-.373.067-.531.132zm0-1.386c.136-.05.29-.083.454-.105v.26a1.972 1.972 0 0 0-.454.124v-.279zm.401.454v.259a2.31 2.31 0 0 0-.643.227v-.287c.189-.088.4-.162.643-.199zm-1.309.229l-.008-.267c.127-.042.259-.107.403-.183l.208-.104v.29l-.092.045a2.622 2.622 0 0 1-.511.219zm.538.032v.289l-.027.013a2.698 2.698 0 0 1-.492.214l-.01-.267c.124-.042.248-.106.386-.177l.143-.072zm.213.455v.28c-.083.039-.161.081-.24.12-.159.083-.314.16-.474.209l-.008-.267c.116-.044.236-.104.366-.171a5.65 5.65 0 0 1 .356-.171zm-.349.721v.288c-.115.056-.23.11-.345.146l-.01-.267c.111-.042.225-.099.348-.164l.007-.003zm.136.484v.289l-.027.014a3.008 3.008 0 0 1-.437.196l-.008-.269c.104-.041.213-.097.329-.157l.143-.073zm.388.382v.281a4.318 4.318 0 0 0-.415.193c-.14.073-.277.142-.418.192l-.009-.273c.099-.041.201-.093.311-.149.161-.085.334-.174.531-.244zm-.24-.167v-.286l.16-.066v.28l-.16.072zm0-.839c.132-.061.277-.112.435-.152v.269a2.558 2.558 0 0 0-.435.169v-.286zm.828.604a1.747 1.747 0 0 0-.369.059v-.268c.114-.027.236-.044.369-.051v.26zm.722.39l-.001.278c-.139-.069-.34-.123-.626-.123-.125 0-.24.015-.35.037v-.265a1.937 1.937 0 0 1 .977.073zm-.605-.399v-.257c.254.002.452.045.608.106l-.002.277c-.135-.069-.331-.122-.606-.126zm.261-.788c.132.019.252.047.349.084v.279a1.166 1.166 0 0 0-.349-.105v-.258zM32.8 26v-.258c.249.004.444.047.597.108v.277c-.133-.069-.326-.122-.597-.127zm-.037-.556l-.041.004v-.259l.041-.004c.271 0 .476.047.638.112l-.001.279c-.14-.073-.342-.132-.637-.132zM29.616 3.943l-.028.135c0 .362.281.652.634.676l.04.263-.193-.028-.323-.06-1.187-1.62h.497c0 .328.246.589.56.634zm1.848 1.336l-.724 1.01-.724-1.01c.235.043.478.069.724.069.248 0 .489-.026.724-.069zm-.248 5.681c.152.205.161.213.193.181s.17-.218.285-.181c.115.036.113.1.206 0 .093-.102.206-.528.278-.501.071.027.088.132.056.254-.032.121-.114.307.015.356.129.047.258-.268.305-.438.048-.17.277-.385.352-.394.073-.01.164.264.13.459-.024.142-.001.285-.065.41l-.135.144-.002.002c-.458.398-.921.051-.921.051-.166.082-.691.696-1.005.325-.248-.295-.083-.567-.003-.668.07-.062.203-.147.311 0zm1.66 3.545l-.03.151c0 .407.316.731.711.761l.046.293c-.073-.01-.143-.017-.217-.031l-.362-.067-1.33-1.817h.557c0 .369.276.661.625.71zm2.074 2.63h-1.623v-1.133h1.623v1.133zm-.273-1.425l.045-.293a.765.765 0 0 0 .712-.761l-.031-.151a.719.719 0 0 0 .627-.71h.557l-1.331 1.817-.361.067-.218.031zm1.28-6.51l.175-.048c.023.013.571.332.756.467l.029.182-.103.054-.076-.025c-.175-.13-.728-.45-.733-.454l-.048-.176zm2.309.831l.012.01c.009.013-.063.093-.161.18 0 0-.222.195-.425.406-.205.213-.393.442-.393.442-.084.099-.161.174-.173.165l-.011-.01c-.415-.408-.487-.989-.165-1.324.324-.333.901-.276 1.316.131zm-.491.679c.201-.208.419-.4.419-.4l.077-.073.044.037c.367.361.452.876.187 1.15-.265.273-.777.204-1.144-.158l-.039-.043.07-.079c.001-.001.186-.227.386-.434zm.437-5.721l-.193.028.04-.263a.678.678 0 0 0 .634-.676l-.027-.135a.643.643 0 0 0 .559-.634h.496l-1.187 1.62-.322.06zm-.673.065l-.181-.008-.459-2.979h1.278l-.459 2.979-.179.008zm-.52-.3l.04.263-.193-.028-.322-.06-1.187-1.62h.497c0 .328.244.589.559.634l-.028.135c0 .362.282.652.634.676zm-1.584.298c.118.603-.164 1.151-.641 1.247-.478.094-.946-.303-1.065-.909l-.004-.014c-.001-.017.109-.043.245-.06 0 0 .309-.034.612-.096.303-.06.602-.145.602-.145.133-.038.244-.055.249-.039l.002.016zm-.877.046c-.298.061-.6.094-.602.095l-.108.018-.018-.059c-.104-.535.129-1.033.521-1.112.392-.078.794.293.9.828l.008.061-.108.025c-.002 0-.295.084-.593.144zm-.419 2.247l.032.161a1.322 1.322 0 0 0-.421-.076c-.153 0-.288.036-.413.087h-.027c-.13.046-.187-.078-.176-.206.012-.131.374-.244.386-.284l-.045-.048-.24-.046c-.057-.004-.104-.019-.101-.098.005-.08.158-.414.134-.438l-.241.169c-.049.024-.088.049-.103-.029-.015-.079.007-.746-.018-.754l-.055.105s-.04.274-.065.476c-.023.202-.103.17-.201.173-.097.002-.271-.149-.279-.132-.007.016-.072-.033.088.194.16.226.44.388.465.412l-.098.065-.254.04c0 .033-.064.081.168.132.232.049.272.183.332.316.059.133-.034.214-.034.214l.003.005-.108.179a.761.761 0 0 0-.05.343c-.186-.024-.617-.134-.652-.65-.044-.66.204-.633.204-.633s-.561-.359-.457-.787c.104-.429.554-.218.554-.218l.192.024s-.152-.193-.176-.542c-.025-.347.18-.438.358-.445.178-.007.527.142.433 1.11 0 0 .24-.05.369.233.13.283-.123.389-.123.389s.509.04.619.559zm-.935 3.165c-.017-.29.088-.495.316-.696.145-.126.309-.215.418-.267.02.11.032.236.011.39-.071.519-.278.701-.457.764-.072.018-.275.047-.288-.191zm.935 5.242l-.201-.011-.514-3.337h1.431l-.513 3.337-.203.011zm1.911-3.971l-.068.011a.26.26 0 0 1-.248-.192c-.323-1.196-.675-1.867-.922-2.227a.938.938 0 0 0 .361-.383c.293.399.694 1.137 1.056 2.475a.257.257 0 0 1-.179.316zm-.344-2.726l-.05.193-.11-.118a.813.813 0 0 1-.13-.35c.017-.158.056-.152.358-.113.149.019.286.113.39.201l-.096-.026a.412.412 0 0 0-.362.213zm-.856-2.468c.098-.019.187-.057.272-.101l.029.139c.055.267.129.627.198.991a.898.898 0 0 0-.318.275l-.188-.19c-.067-.356-.141-.708-.193-.971l-.028-.127.03.004.198-.02zM33.776 8.89l-.038.088-.05-.015c-.429-.172-.676-.572-.549-.894.127-.32.577-.439 1.008-.267l.046.022-.031.089c0 .002-.077.254-.173.498a7.158 7.158 0 0 1-.213.479zm.574-1.143l.012.006c.485.195.745.654.591 1.045-.156.391-.656.544-1.142.349l-.011-.004c-.014-.006.018-.098.071-.205 0 0 .118-.24.216-.487.098-.249.176-.504.176-.504.035-.114.073-.203.087-.2zm2.167-.813a4.84 4.84 0 0 1-.389-.059c-.194-.035-.382-.089-.383-.089l-.069-.016.004-.04c.066-.344.324-.585.578-.537.253.049.403.369.338.714l-.009.039-.07-.012zm.146.128c-.075.39-.374.648-.682.589-.309-.061-.492-.413-.419-.802l.002-.011c.003-.009.075.002.16.026 0 0 .193.053.388.092.197.037.395.059.395.059.088.01.159.025.159.037l-.003.01zm.151-1.783c.236.043.477.069.725.069.246 0 .487-.026.723-.069l-.723 1.01-.725-1.01zm-.671 2.742s-.023.178-.38.376c-.355.196-.521.07-.521.07l-.124-.112s.171-.609.671-.512c.499.098.5.171.5.171s.212-.398.61-.243c.4.153.298.38.42.473.123.093 1.114-.133.959.585-.155.719-.506.393-.82.435-.104.014-.182.081-.243.163l-.084.034-.072-.076a11.37 11.37 0 0 0-.784-.489l-.006-.001-.066-.165c.027-.076.165-.005.409.099.243.106.452.321.473.301l-.051-.152-.089-.248c.016-.027.217.01.374.053.158.042.428-.034.428-.116s-.337-.056-.535-.054c-.197.001-.162-.147-.153-.214l.055-.2c-.025-.033-.113-.008-.393.156-.282.162-.457.127-.513 0-.056-.129.081-.334 0-.334h-.065zm-3.854.378c.199-.015.387.023.561.086.086.294.328.564.676.722l.042.089h-.003l.009.013.013.018c.029.046.063.134-.067.188-.18.074-.438.115-.738.058-.299-.057-.572-.067-.62.027-.048.094.055.174.127.214.073.042.296.155.081.257-.217.1-.649.094-.769.166-.12.071-.084.097-.05.128.034.032.251.137.106.266-.144.13-.333.203-.476.127-.137-.076-.274-.227-.225-.398.088-.386.291-.394.423-.595.138-.211.175-.386.172-.635-.002-.25-.078-.673.738-.731zm-.875-3.41l-.192.028.039-.263a.678.678 0 0 0 .635-.676l-.029-.135a.643.643 0 0 0 .56-.634h.497l-1.187 1.62-.323.06zm-.674.065l-.18-.008-.459-2.979h1.278l-.458 2.979-.181.008zM4.519 15.793s.216.543.863.979c0 0-.398-.128-.653-.43.105.222.25.47.438.667 0 0-.352-.186-.54-.608.064.229.164.485.323.697 0 0-.246-.105-.371-.506l-.06.723-.058-.723c-.126.401-.372.506-.372.506.158-.212.26-.468.323-.697-.188.422-.54.608-.54.608.187-.197.333-.445.438-.667-.256.302-.653.43-.653.43.647-.436.862-.979.862-.979zm2.167-.987l.39-1.213.391 1.213h1.265l-1.024.75.39 1.211-1.022-.749-1.021.749.39-1.211-1.023-.75h1.264zm2.947.987s.216.543.862.979c0 0-.396-.128-.651-.43.104.222.249.47.437.667 0 0-.352-.186-.54-.608.064.229.164.485.324.697 0 0-.248-.105-.373-.506l-.059.723-.059-.723c-.124.401-.372.506-.372.506.16-.212.261-.468.324-.697-.188.422-.54.608-.54.608.188-.197.332-.445.437-.667-.255.302-.652.43-.652.43.647-.436.862-.979.862-.979zm.243.191a.19.19 0 0 1 .189-.191.19.19 0 0 1 .188.191.189.189 0 1 1-.377 0zm-.431-.477c0-.105.084-.19.188-.19s.188.085.188.19-.084.19-.188.19a.189.189 0 0 1-.188-.19zm-.459.477a.19.19 0 0 1 .189-.191.19.19 0 0 1 .188.191.189.189 0 1 1-.377 0zm-1.261-3.132s-.353-.186-.541-.607c.063.228.164.484.323.696 0 0-.247-.105-.371-.505l-.06.722-.059-.722c-.125.4-.371.505-.371.505.159-.212.259-.468.323-.696-.188.421-.54.607-.54.607.187-.196.332-.445.437-.667-.255.303-.651.431-.651.431.646-.438.861-.98.861-.98s.216.542.863.98c0 0-.397-.128-.652-.431.104.222.249.471.438.667zm-.406-1.025a.19.19 0 0 1 .188-.191.19.19 0 0 1 .189.191.19.19 0 0 1-.189.19.19.19 0 0 1-.188-.19zm-.431-.476a.19.19 0 0 1 .188-.192.19.19 0 0 1 .189.192.19.19 0 0 1-.189.19.189.189 0 0 1-.188-.19zm-.459.476a.19.19 0 0 1 .189-.191.19.19 0 0 1 .188.191.19.19 0 0 1-.188.19.19.19 0 0 1-.189-.19zm-1.668 4.157a.19.19 0 0 1 .189-.191.19.19 0 0 1 0 .381.19.19 0 0 1-.189-.19zm-.43-.477a.189.189 0 1 1 .377 0 .189.189 0 0 1-.377 0zm-.459.477a.19.19 0 0 1 .189-.191.19.19 0 0 1 .188.191.189.189 0 1 1-.377 0zm8.729-12.643s-.352-.187-.54-.609c.063.229.164.486.324.699 0 0-.247-.106-.372-.507l-.06.723-.057-.723c-.126.401-.374.507-.374.507.16-.213.261-.47.324-.699-.189.422-.54.609-.54.609.188-.196.334-.445.437-.667-.255.301-.652.43-.652.43.646-.436.862-.98.862-.98s.216.544.864.98c0 0-.398-.129-.654-.43.106.222.251.471.438.667zm-.405-1.026a.19.19 0 0 1 .189-.191.19.19 0 0 1 .189.191.19.19 0 0 1-.189.191.19.19 0 0 1-.189-.191zm-.89 0a.19.19 0 0 1 .189-.191.19.19 0 0 1 .188.191.19.19 0 0 1-.188.191.19.19 0 0 1-.189-.191zm-.41 2.385l.391 1.212-1.023-.748-1.023.748.391-1.212-1.022-.751h1.264l.39-1.211.391 1.211h1.263l-1.022.751zm.053 3.378a.19.19 0 0 1 0 .381.19.19 0 1 1 0-.381zm.271-.286a.19.19 0 0 1 .188-.19.19.19 0 0 1 0 .381.19.19 0 0 1-.188-.191zm.62.286a.19.19 0 0 1 0 .381.19.19 0 0 1 0-.381zm-.432 0s.216.544.863.979c0 0-.397-.129-.652-.43.104.222.249.471.437.667 0 0-.351-.186-.54-.608.064.228.165.485.324.697 0 0-.248-.105-.372-.505l-.06.722-.058-.722c-.125.4-.373.505-.373.505a2.16 2.16 0 0 0 .325-.697c-.189.422-.541.608-.541.608.188-.196.333-.445.438-.667-.256.301-.654.43-.654.43.647-.435.863-.979.863-.979zM7.725 5.539s-.353-.187-.541-.609a2.1 2.1 0 0 0 .323.698s-.247-.105-.371-.506l-.06.723-.059-.723c-.125.401-.371.506-.371.506a2.12 2.12 0 0 0 .323-.698c-.188.422-.54.609-.54.609.187-.196.332-.445.437-.667-.255.302-.651.429-.651.429.646-.436.861-.978.861-.978s.216.542.863.978c0 0-.397-.127-.652-.429.104.222.249.471.438.667zm-.406-1.026a.19.19 0 0 1 .188-.19.19.19 0 0 1 .189.19.19.19 0 0 1-.189.191.19.19 0 0 1-.188-.191zm-.431-.477c0-.104.083-.19.188-.19a.19.19 0 0 1 .189.19.188.188 0 1 1-.377 0zm-.459.477a.189.189 0 0 1 .377 0 .19.19 0 0 1-.188.191.19.19 0 0 1-.189-.191zM4.912 5.912L3.89 5.164l-1.023.748.39-1.212-1.022-.751h1.264l.391-1.211.39 1.211h1.264L4.522 4.7l.39 1.212zM2.847 3.341s-.352-.187-.54-.609c.063.229.164.486.324.699 0 0-.248-.106-.373-.507l-.058.723-.06-.723c-.125.401-.371.507-.371.507.158-.213.258-.47.323-.699-.188.422-.541.609-.541.609.188-.196.334-.445.439-.667-.256.301-.653.43-.653.43.647-.436.863-.98.863-.98s.216.544.862.98c0 0-.398-.129-.653-.43.105.222.25.471.438.667zm-.404-1.026a.19.19 0 0 1 .188-.191.191.191 0 0 1 0 .382.19.19 0 0 1-.188-.191zm-.892 0a.19.19 0 0 1 .189-.191.19.19 0 0 1 .189.191.19.19 0 0 1-.189.191.19.19 0 0 1-.189-.191zm.734 5.763a.19.19 0 0 1 .188.191.189.189 0 1 1-.377 0 .19.19 0 0 1 .189-.191zm.27-.286a.19.19 0 0 1 .189-.19.19.19 0 1 1 0 .381.19.19 0 0 1-.189-.191zm.62.286a.19.19 0 0 1 0 .381.19.19 0 0 1 0-.381zm-.431 0s.215.544.862.979c0 0-.396-.129-.652-.43.105.222.249.471.437.667 0 0-.352-.186-.54-.608.064.228.164.485.324.697 0 0-.247-.105-.372-.505l-.059.722-.059-.722c-.126.4-.372.505-.372.505.16-.212.26-.469.323-.697-.188.422-.54.608-.54.608.188-.196.333-.445.438-.667-.256.301-.653.43-.653.43.647-.435.863-.979.863-.979zm1.114 17.195l.038-.009-.012-.23h.132l.042-.003.113-.012.13-.033.037-.009-.025-.31h.134c.232 0 .452-.108.706-.233.346-.168.738-.358 1.288-.358h.011c.642 0 .96.223 1.111.392.149-.169.469-.392 1.11-.392h.011c.55 0 .942.19 1.288.358.254.125.475.233.706.233h.134l-.026.31.038.009.13.033.113.012.042.003h.132l-.012.23.037.009a.33.33 0 0 1 .22.206l.018.102v4.374l-.003.018.003.008v.411l-.077.079h-.192l-.079-.079v-.161H8.295c-.064.437-.362.757-.732.757s-.667-.32-.733-.757H3.967v.161l-.076.079h-.193l-.078-.079v-.411l.003-.008-.003-.018v-4.374l.02-.102a.325.325 0 0 1 .218-.206zm.501-.039l-.212.052.043 4.112c.617-.039 1.138-.584 2.133-.584.081 0 .157.003.227.009l.068.007.131.016.072.015.099.022.066.02.08.025.057.026.066.028.048.026.053.03.037.027.046.033.025.023.027.021.002-.647-.065-.021-.084-.024-.158-.04-.051-.012-.203-.033-.044-.007a2.125 2.125 0 0 0-.269-.016c-.482 0-.849.19-1.213.251-.487.084-.701.044-.701.044l-.28-3.403zm3.073-.489c-.006-.017-.171-.407-.985-.411-.49 0-.851.177-1.171.334-.228.11-.447.217-.684.248l.127 3.711.096-.021.091-.019.082-.03.11-.043.028-.013c.167-.078.34-.175.534-.261l.049-.022.145-.053.095-.035.153-.035.112-.026c.075-.012.156-.016.239-.018l.056-.005h.001c.132 0 .246.011.347.031l.085.023.177.052.09.049.098.053.081.069.041.035.012-3.59-.009-.023zm2.417-.077c-.32-.157-.683-.334-1.172-.334-.75.004-.947.333-.978.397l-.003 3.627.041-.035.081-.069.098-.053.09-.049.177-.052.085-.023c.101-.02.216-.031.347-.031l.057.005c.082.002.164.006.239.018l.112.026.153.035.095.035.145.053.049.022c.194.086.368.183.534.261l.027.013.111.043.081.03.092.019.096.021.125-3.711c-.236-.031-.454-.138-.682-.248zm.916.566l-.28 3.403s-.212.04-.7-.044c-.365-.061-.732-.251-1.213-.251-.092 0-.183.005-.27.016l-.043.007-.203.033-.052.012-.157.04-.084.024-.065.021.002.647.026-.021.027-.023.045-.033.037-.027.053-.03.048-.026.066-.028.056-.026.081-.025.065-.02.101-.022.071-.015.131-.016.067-.007c.071-.006.147-.009.228-.009.995 0 1.514.545 2.132.584l.044-4.112-.213-.052zm-6.889 4.721l1.628.004 1.447.004v.003h.134l-.013.088c0 .379.215.675.491.675.274 0 .489-.296.489-.675l-.012-.088h.134l-.001-.003 1.448-.004 1.627-.004v-4.374l-.034-.05-.208 3.873-.072.01v-.003l-.106.003c-.133 0-.345-.009-.648-.052-.431-.062-.862-.253-1.428-.253-.1 0-.196.007-.29.015l-.041.005-.038.003c-.076.009-.15.019-.219.031l-.042.007-.169.035-.055.011-.014.003-.023.007-.153.04-.003.001c-.08.023-.133.041-.133.041l-.009-.008-.011.008s-.052-.018-.133-.041l-.001-.001-.154-.04-.023-.007-.016-.003-.054-.011-.169-.035-.041-.007a4.167 4.167 0 0 0-.22-.031l-.038-.003-.04-.005a3.366 3.366 0 0 0-.29-.015c-.566 0-.999.191-1.428.253a4.639 4.639 0 0 1-.648.052l-.107-.003v.003l-.071-.01-.208-3.873-.035.05v4.374zm3.941.099c0 .237-.117.438-.254.438-.139 0-.255-.201-.255-.438 0-.238.116-.439.255-.439.137 0 .254.201.254.439zm1.906-4.831l-.092-.045v-.29l.209.104c.144.076.275.141.403.183l-.008.267a2.604 2.604 0 0 1-.512-.219zm-.798-.01a2.3 2.3 0 0 1 .643.199v.287a2.3 2.3 0 0 0-.643-.227v-.259zm-.053-.559c.165.022.319.055.456.105v.279a1.989 1.989 0 0 0-.456-.124v-.26zm.456 1.211v.28a1.91 1.91 0 0 0-.533-.132v-.259c.196.018.375.053.533.111zm-.493.706l-.209-.02-.037.002v-.257l.037-.003.209.018v.26zm-.847-.995v-.279c.162-.065.367-.112.638-.112l.041.004v.259l-.041-.004c-.295 0-.498.059-.638.132zm-.002-.551l-.001-.28c.164-.065.369-.112.641-.112l.041.003v.259l-.041-.003c-.297 0-.5.059-.64.133zm.603.717V26c-.272.005-.464.058-.597.127l-.001-.277c.153-.061.349-.104.598-.108zm-.247.833a1.151 1.151 0 0 0-.347.105l-.002-.279a1.67 1.67 0 0 1 .349-.084v.258zm.262.273v.257a1.381 1.381 0 0 0-.607.126l-.001-.277c.157-.061.354-.104.608-.106zm.022.551c.125 0 .24.012.349.032v.265a1.745 1.745 0 0 0-.349-.037c-.287 0-.487.054-.626.123l-.002-.278c.16-.061.363-.105.628-.105zm.094-.545c.133.007.256.024.37.051v.268a1.757 1.757 0 0 0-.37-.059v-.26zm.829-.058a2.602 2.602 0 0 0-.436-.169v-.269c.159.04.304.091.436.152v.286zm.601 1.113l-.008.273a3.39 3.39 0 0 1-.419-.192 4.189 4.189 0 0 0-.414-.193v-.281c.197.07.37.159.531.244.109.056.211.108.31.149zm-.454-.486v-.289l.144.073c.116.06.224.116.329.157l-.009.269a3.008 3.008 0 0 1-.437-.196l-.027-.014zm.137-.773l.007.003c.124.065.237.122.347.164l-.008.267a2.451 2.451 0 0 1-.346-.146v-.288zm-.444.347l.16.066v.286l-.16-.072v-.28zm.094-.788v-.28c.126.055.246.113.357.171.129.067.25.127.366.171l-.009.267a2.808 2.808 0 0 1-.474-.209c-.077-.039-.157-.081-.24-.12zm.213-.446v-.289l.144.072c.137.071.262.135.385.177l-.009.267a2.736 2.736 0 0 1-.493-.214l-.027-.013zm-3.197-.871l-.041.003v-.259l.041-.003a1.7 1.7 0 0 1 .641.112l-.001.28c-.14-.074-.343-.133-.64-.133zm.037 1.404v.257l-.037-.002-.21.02v-.26c.069-.008.135-.018.21-.018l.037.003zm-.738-.151v-.28c.157-.058.336-.093.531-.111v.259c-.197.02-.374.067-.531.132zm0-1.386c.137-.05.289-.083.454-.105v.26a1.972 1.972 0 0 0-.454.124v-.279zm.402.454v.259a2.306 2.306 0 0 0-.644.227v-.287c.188-.088.399-.162.644-.199zm-1.31.229l-.008-.267a2.68 2.68 0 0 0 .403-.183l.209-.104v.29l-.092.045a2.63 2.63 0 0 1-.512.219zm.538.032v.289l-.026.013a2.736 2.736 0 0 1-.493.214l-.009-.267a2.86 2.86 0 0 0 .385-.177l.143-.072zm.214.455v.28c-.084.039-.163.081-.24.12-.159.083-.314.16-.474.209l-.01-.267c.117-.044.237-.104.367-.171.111-.058.231-.116.357-.171zm-.35.721v.288c-.115.056-.23.11-.345.146l-.01-.267c.111-.042.225-.099.348-.164l.007-.003zm.136.484v.289l-.026.014a3.16 3.16 0 0 1-.437.196l-.01-.269c.105-.041.214-.097.33-.157l.143-.073zm.389.382v.281a3.91 3.91 0 0 0-.415.193 3.458 3.458 0 0 1-.419.192l-.008-.273c.098-.041.2-.093.31-.149.162-.085.334-.174.532-.244zm-.241-.167v-.286l.16-.066v.28l-.16.072zm0-.839c.132-.061.277-.112.435-.152v.269a2.59 2.59 0 0 0-.435.169v-.286zm.828.604a1.757 1.757 0 0 0-.369.059v-.268c.115-.027.236-.044.369-.051v.26zm.723.39l-.003.278c-.138-.069-.338-.123-.625-.123-.125 0-.24.015-.349.037v-.265c.109-.02.224-.032.349-.032.264 0 .467.044.628.105zm-.606-.399v-.257c.254.002.452.045.608.106l-.002.277c-.135-.069-.33-.122-.606-.126zm.261-.788c.133.019.252.047.349.084v.279a1.166 1.166 0 0 0-.349-.105v-.258zM6.536 26v-.258c.248.004.444.047.598.108l-.001.277A1.35 1.35 0 0 0 6.536 26zm-.037-.556l-.041.004v-.259l.041-.004c.271 0 .475.047.638.112l-.001.279c-.14-.073-.342-.132-.637-.132zm7.509-.433c.109 0 .199.06.254.145.107-.05.313-.118.573-.127l-.001.018a1.47 1.47 0 0 0 .049.444 2.085 2.085 0 0 0-.606-.018.307.307 0 0 1-.269.166.312.312 0 0 1-.31-.314c0-.173.138-.314.31-.314zm.224.712l.162.052.001-.002s.238.002.529-.172l.056.136c.269.494.522.681.718.74l-.021.055a.626.626 0 0 0-.038.232l-.019.006c-.276.101-.398.363-.453.594a.31.31 0 0 1-.146.584.312.312 0 0 1-.101-.606c.039-.132.11-.288.229-.454.142-.196.103-.358.049-.456a3.122 3.122 0 0 0-.42.291l.022.109c0 .173-.14.314-.312.314a.312.312 0 0 1-.31-.314c0-.173.139-.314.31-.314l.132.032c.124-.086.29-.239.342-.439a2.356 2.356 0 0 0-.442.043.313.313 0 0 1-.288.196.313.313 0 0 1-.31-.314c0-.174.14-.313.31-.313zm2.252 6.693c.916-.787 1.821-.39 2.292.08.533.534 1.037.529 1.037.529h1.26s.504.005 1.039-.529c.471-.47 1.375-.867 2.291-.08.925.795.965 2.029-.621 4.092 0 0 .492.895-.31 2.824-.802 1.932-1.586 2.853-1.586 3.207 0 .353.499.926.499 1.412 0 .485-.953.613-1.942.613-.988 0-1.941-.128-1.941-.613 0-.486.5-1.059.5-1.412 0-.354-.784-1.275-1.587-3.207-.803-1.929-.309-2.824-.309-2.824-1.588-2.063-1.547-3.297-.622-4.092zm5.454 1.689l1.424.926c.347.223.55-.009.627-.132.673-1.304.169-1.745-.05-1.933-.215-.185-.43-.279-.641-.279-.35 0-.623.246-.7.323-.199.197-.58.446-.58.446l-.175.091a.52.52 0 0 0-.204.204c-.084.187.133.247.299.354zm-5.039.794c.076.124.279.357.627.132l1.423-.926c.167-.107.385-.167.298-.354a.5.5 0 0 0-.202-.203l-.177-.092s-.381-.249-.58-.446c-.074-.077-.349-.323-.698-.323-.21 0-.425.094-.641.279-.22.188-.724.629-.05 1.933zm7.371-8.774c-.608-.022-.894-.045-.935-.56 0 0-.02-.338.055-.473.304-.56 1.58-.432 2.065-1.032.484-.599-.247-1.412-.247-1.412s.89-.597 1.155.371c.264.969-.525 1.172-.509 1.326.008.074.328-.089.771-.072.496.021 1.014.581.942.734-.631 1.333-1.49.634-1.559.941-.07.305.474.079.494.855.02.774-.601.914-.601.914.383-1.411-1.023-1.571-1.631-1.592zm-1.561-1.946c-.62.201-.759-.357-.88-.721-.123-.363-.072-.586.164-.659.238-.072.341-.134.892.197.551.33.42.884.42.884s.024.097-.596.299zm-.452-1.72a.823.823 0 0 0-.252.043c-.064-.233-.071-.575.307-.829v-.001a.305.305 0 0 0 .16-.266.31.31 0 0 0-.308-.31.308.308 0 0 0-.305.31s.07.285-.279.859c-.076-.142-.114-.336-.053-.626h-.002l.008-.043a.303.303 0 0 0-.223-.291c.073-.15.25-.38.666-.469.634-.134.614-.24.614-.24s.162.433.261.668c.088.206.438.791.022 1.401-.261-.144-.446-.206-.616-.206zm-1.06 1.565a.883.883 0 0 1-.232.144c-.151.071-.345.166-.469.422a1.48 1.48 0 0 1-.811-.89c-.266-.788-.005-.941.479-.741.484.199.715.226.87.152.044-.021.369.162.224.731l-.061.182zm.088-1.583c-.241-.138-.487-.312-.612-.508h-.004a.3.3 0 0 0-.285-.207.307.307 0 0 0-.305.308c0 .172.136.31.305.31l.072-.014.002.014s.36.039.597.483l.018.006-.029-.007-.073.001-.057.026-.063.012c-.113 0-.308-.058-.581-.17a1.118 1.118 0 0 0-.429-.099l-.044.008c-.215-.236-.65-.743-.902-1.248 0 0 1.269-.499 2.272-.113l.116.056-.056-.01a.305.305 0 1 0-.095.597c.062.114.128.293.153.555zm-2.381 2.593l-.089.024c-.371.142-.581.339-.703.523l.077-.137a1.31 1.31 0 0 0 .169-.66l-.013-.193c.168.14.365.297.559.443zm-3.482.781c-.125-.229-.106-.514-.106-.514l.113-.196c.002-.004.13-.218.336-.218l.111.002c.229 0 .417-.027.598-.053l.141-.02c-.201.5-.064.854.175 1.057.094.212.171.507-.108.656-.419.223-.649-.122-.649-.122s-.258.055-.611-.592zm4.143 6.717c-.006-.428-.113-1.177-.779-1.347-.941-.239-1.68-.115-1.68-.115s.832-.779 2.273-.464c1.092.237 1.223 1.054 1.237 1.276v.717h-.797a.798.798 0 0 1-.254-.067zm.838-1.71c1.14-2.244 1.71-2.13 1.71-2.13s-.159.418-.43 1.163a6.628 6.628 0 0 1-.47.958 3.175 3.175 0 0 0-.461.499 1.616 1.616 0 0 0-.349-.49zm1.613.546c-.636.272-.764.698-.789 1.199a.784.784 0 0 1-.154.032h-.174l-.001-.734a1.476 1.476 0 0 0-.035-.233c.238-.352.68-.865 1.287-.984 1.169-.23 2.109.689 2.109.689s-1.198-.418-2.243.031zm.434-1.032a2.318 2.318 0 0 0-.354.033 1.803 1.803 0 0 0-.397.135c.102-.202.189-.389.247-.553.03-.077.055-.151.083-.222a4.273 4.273 0 0 1 1.276-1.037s-.181.796-.855 1.644zm-2.066-4.485c.214.224.198.661-.136 1.444a3 3 0 0 0-.094.267 2.773 2.773 0 0 0-.533-.27l-.019-.145c-.13-.978-.693-1.183-1.143-1.183-.077 0-.147.009-.218.017.036-.171.169-.465.674-.656.742-.284 1.255.303 1.469.526zm-2.488 1.037s.435.282 1.444.602c1.011.318 1.406.992 1.58 1.562l.057.251a8.964 8.964 0 0 0-.537.852 1.477 1.477 0 0 1-.276-.491 2.341 2.341 0 0 0-1.147-1.31c-.557-.287-.892-.79-1.121-1.466zm1.512 3.435c-.09-.21-.254-.488-.497-.521 0 0-.434.29-1.055-.205-.621-.494-.653-.783-.653-.783s1.48-.751 2.836 1.569l.125.248a2.1 2.1 0 0 0-.726-.304l-.03-.004zm-.086-3.139c-.874-.285-1.268-.533-1.272-.535l-.597-.359.178.69c.048.144.106.269.164.396-.292-.27-.544-.614-.584-.923-.06-.441.21-.496.303-.638.094-.143.227-.311.227-.311s-.185.749.155.786c.322.034 1.256-.394 1.426.894zm1.369-2.299c.137-.628.631-.271.952-1.043 0 0 .165.238.222.524l-.161.583c-.002.006-.175.612-.701.951-.186-.262-.392-.648-.312-1.015zm1.155 1.853l-.101.081-.041.02c-.73.345-.924.87-.957 1.261a2.479 2.479 0 0 0-.286-.303c-.018-.269.079-1.267.684-1.65.639-.407.831-1.124.831-1.124s.661 1.135-.13 1.715zm2.14.651s-1.108-.065-1.791.499c-.683.565-1.011 1.01-1.011 1.01-.02-.006-.633-1.199.639-1.803 1.6-.761 2.163.294 2.163.294zm-.924-1.75a6.372 6.372 0 0 0-.553.207 2.11 2.11 0 0 0-.092-.505c.181-.076.407-.159.671-.235-.042.175-.04.379-.034.48l.008.053zm-6.948 1.184a.7.7 0 0 0 .295.065.865.865 0 0 0 .404-.108l.165-.124c.043.145.105.286.187.412.063.137.122.248.122.374 0 .165-.341.481-.778.287-.434-.194-.357-.6-.357-.6-.071-.128-.067-.228-.038-.306zm1.782-1.98s-.236.303-.373.484c0 0-.143.177-.241.328l-.051.047-.055.05-.116-.034c-.281-.153-.353-.484-.121-.934 0 0 .154-.304-.19-.27-.343.033-.591.104-.974.089-.382-.014-.589.361-.589.361s-.238-.079-.252-.621c0 0-.152-.899.407-1.118.244-.095.578.668 1.445.606.848-.061 1.291.15 1.291.953 0 .208-.052.38-.133.52l-.048-.461zm39.584 2.478h-3.494v11.413c0 .761.072 1.527.216 2.299.144.772.426 1.477.849 2.115.421.638 1.003 1.159 1.746 1.561.744.403 1.703.605 2.879.605 1.02 0 1.891-.158 2.613-.47a4.32 4.32 0 0 0 1.747-1.343c.443-.581.771-1.276.982-2.082.21-.805.315-1.7.315-2.685V27.321h-3.261v-2.148h9.019v2.148h-2.83v11.413c0 5.819-2.883 8.729-8.651 8.729-1.753 0-3.184-.248-4.293-.74s-1.98-1.147-2.612-1.963a6.98 6.98 0 0 1-1.298-2.803 14.857 14.857 0 0 1-.349-3.223V27.321h-2.962v-2.148h9.384v2.148zm20.797 7.285h.068c.377-.984 1.037-1.751 1.98-2.301a6.075 6.075 0 0 1 3.111-.821c1.908 0 3.284.469 4.126 1.41.843.939 1.265 2.327 1.265 4.161v7.924h2.629v2.148H83.47v-2.148h2.629v-7.352c0-1.231-.25-2.205-.749-2.921-.5-.716-1.415-1.074-2.745-1.074-1.465 0-2.552.459-3.262 1.376-.71.917-1.066 2.06-1.066 3.423v6.548h2.63v2.148H72.92v-2.148h2.63V33.968h-2.63v-2.15h5.357v2.788zm77.254 8.979c.278.459.651.817 1.114 1.074.466.258.994.432 1.581.52.589.09 1.193.135 1.813.135.335 0 .684-.045 1.051-.135a3.22 3.22 0 0 0 1.013-.436c.311-.201.566-.453.766-.755.2-.303.301-.655.301-1.058 0-.515-.128-.91-.384-1.192a2.477 2.477 0 0 0-.948-.637 4.74 4.74 0 0 0-1.249-.285c-.454-.045-.892-.1-1.314-.168a90.209 90.209 0 0 1-2.164-.37 7.416 7.416 0 0 1-1.996-.654 4.037 4.037 0 0 1-1.464-1.225c-.377-.514-.565-1.22-.565-2.116 0-.804.177-1.51.532-2.115a4.94 4.94 0 0 1 1.364-1.51 5.735 5.735 0 0 1 1.881-.889 8.02 8.02 0 0 1 2.113-.285c.998 0 1.914.168 2.746.503a3.612 3.612 0 0 1 1.88 1.678h.066v-1.847h2.129v5.036h-2.129c0-.671-.112-1.214-.333-1.628a2.529 2.529 0 0 0-.899-.973 3.673 3.673 0 0 0-1.314-.487 9.185 9.185 0 0 0-1.613-.134c-.4 0-.815.033-1.248.101a4.126 4.126 0 0 0-1.2.37 2.504 2.504 0 0 0-.898.72c-.232.303-.349.7-.349 1.191 0 .449.145.791.433 1.025.289.234.661.42 1.115.553.453.134.948.242 1.481.32.533.078 1.043.163 1.531.252.665.112 1.341.24 2.028.386.69.146 1.304.368 1.848.67.545.304.986.711 1.332 1.226.343.515.516 1.209.516 2.082 0 .895-.184 1.656-.549 2.282a4.516 4.516 0 0 1-1.448 1.527 6.34 6.34 0 0 1-2.03.856 9.923 9.923 0 0 1-2.295.27 7.6 7.6 0 0 1-1.382-.134 5.5 5.5 0 0 1-1.348-.438 4.67 4.67 0 0 1-1.132-.755 2.961 2.961 0 0 1-.765-1.125h-.066v2.116h-2.131v-5.338h2.131c.021.739.17 1.337.448 1.796z"/>
  </svg>